<?xml version="1.0" encoding="UTF-8"?>
<svg version="1.1" xmlns="http://www.w3.org/2000/svg" width="263" height="300">
<path d="M0 0 C0.88572203 -0.00438225 1.77144406 -0.00876451 2.68400615 -0.01327956 C5.66400895 -0.02667734 8.64398217 -0.03284868 11.62400818 -0.03897095 C13.75598281 -0.04687126 15.8879561 -0.05514016 18.01992798 -0.06375122 C25.03304261 -0.08998353 32.04616324 -0.10528188 39.05931091 -0.11953735 C41.47331687 -0.12489688 43.88732278 -0.13027439 46.30132866 -0.13566971 C56.34410999 -0.15730181 66.38688971 -0.17603786 76.42968845 -0.1872921 C90.82166949 -0.20352595 105.21338031 -0.23668658 119.60525948 -0.29369295 C129.72428852 -0.33240715 139.84324534 -0.35192667 149.96234649 -0.35721266 C156.00571667 -0.36086456 162.04879872 -0.37286897 168.0920887 -0.4053154 C173.78109004 -0.435421 179.46962928 -0.44169866 185.15869331 -0.42993164 C187.24277469 -0.42971111 189.32687767 -0.43799941 191.41088486 -0.45558548 C203.44132541 -0.55154977 212.07099689 -0.3156295 222.01634216 7.07577515 C222.9019281 7.98069702 222.9019281 7.98069702 223.80540466 8.90390015 C224.41126404 9.4968689 225.01712341 10.08983765 225.64134216 10.70077515 C230.99735498 18.04482766 232.00997428 24.86260783 231.91142273 33.79014587 C231.91484043 34.93306325 231.91825813 36.07598063 231.92177939 37.25353187 C231.9283466 41.06766634 231.90640009 44.88109072 231.88450623 48.69515991 C231.88114702 51.43537336 231.88383613 54.17557314 231.88627625 56.91578674 C231.88836872 62.80724443 231.87587059 68.69852426 231.85332489 74.58993721 C231.82074943 83.10779023 231.81039222 91.62555767 231.80537292 100.14346623 C231.79662895 113.9647826 231.77003779 127.78600429 231.73216248 141.60726929 C231.69541912 155.02946501 231.66711875 168.45163496 231.65013123 181.87387085 C231.64908033 182.70189111 231.64802944 183.52991137 231.6469467 184.38302315 C231.64172636 188.53715909 231.63667158 192.69129521 231.63169909 196.84543145 C231.590265 231.28165581 231.51984109 265.71776775 231.43040466 300.15390015 C228.44596883 298.39315792 225.76665499 296.73858786 223.26634216 294.33358765 C222.7069696 293.80265503 222.14759705 293.27172241 221.5712738 292.72470093 C220.98853699 292.16508667 220.40580017 291.60547241 219.80540466 291.02890015 C214.64447494 286.14460658 209.36702991 281.58156189 203.82102966 277.13827515 C201.07019406 274.8549018 198.58962749 272.40391443 196.10618591 269.8374939 C192.42048008 266.13460529 188.39432181 262.77561961 184.36790466 259.45077515 C183.72852966 258.9196814 183.08915466 258.38858765 182.43040466 257.84140015 C181.56415466 257.13563843 181.56415466 257.13563843 180.68040466 256.4156189 C179.43040466 255.15390015 179.43040466 255.15390015 179.43040466 253.15390015 C178.86579529 252.91800171 178.30118591 252.68210327 177.71946716 252.4390564 C174.90968503 250.86155073 173.03421415 248.91338729 170.80540466 246.59140015 C167.91969785 243.46347961 167.91969785 243.46347961 164.43040466 241.15390015 C164.70304138 242.08456299 164.70304138 242.08456299 164.98118591 243.0340271 C165.80173736 245.8436268 166.61613625 248.65497341 167.43040466 251.46640015 C167.71657654 252.44286499 168.00274841 253.41932983 168.29759216 254.42538452 C168.56829529 255.36317749 168.83899841 256.30097046 169.11790466 257.2671814 C169.49495544 258.56329346 169.49495544 258.56329346 169.87962341 259.8855896 C170.43040466 262.15390015 170.43040466 262.15390015 170.43040466 265.15390015 C147.5252179 265.24742844 124.62006271 265.31792101 101.71472359 265.36114883 C91.07886997 265.38175563 80.44313515 265.40984027 69.80735779 265.45565796 C60.53494526 265.49558332 51.26261878 265.52134664 41.99012268 265.53025413 C37.08243457 265.53545921 32.17499263 265.54765384 27.26738358 265.57682037 C22.64301018 265.60407953 18.01898308 265.61232399 13.39453697 265.60633087 C11.70230792 265.60742643 10.01006663 265.61531758 8.31790733 265.63072205 C-3.86518318 265.73613934 -13.61913016 264.72287624 -22.81568909 256.0093689 C-29.95431423 248.45737125 -31.87598972 241.41127692 -31.83702087 231.17921448 C-31.84155199 230.29824185 -31.8460831 229.41726923 -31.85075152 228.50960046 C-31.86337056 225.5696093 -31.86177676 222.62980399 -31.86012268 219.68978882 C-31.86610947 217.57692732 -31.87291537 215.464068 -31.88047791 213.35121155 C-31.8981294 207.61972073 -31.90283292 201.88828965 -31.90410948 196.15677428 C-31.90553208 192.57378695 -31.90980373 188.99081476 -31.91510391 185.40783119 C-31.93360114 172.90187238 -31.94177488 160.39595617 -31.94020081 147.88998413 C-31.93899938 136.24235621 -31.96010276 124.59491359 -31.99168813 112.94733256 C-32.01785976 102.93861655 -32.02856773 92.92996103 -32.02728999 82.92121106 C-32.02678063 76.94726215 -32.03244944 70.97347797 -32.05364609 64.99956322 C-32.07304332 59.3794838 -32.07314255 53.759726 -32.05861282 48.13963509 C-32.05652552 46.08136397 -32.06122091 44.02307265 -32.07333374 41.96483612 C-32.14977308 28.07225649 -31.72024021 17.6373394 -21.72975159 7.06796265 C-15.28747519 1.35961647 -8.36779527 0.00500216 0 0 Z M60.68040466 73.27890015 C59.99156189 73.50190796 59.30271912 73.72491577 58.59300232 73.9546814 C44.06274529 78.78648317 44.06274529 78.78648317 33.30296326 89.02987671 C32.24839163 91.25051651 31.32168144 93.48784533 30.43040466 95.77890015 C30.09355652 96.6179187 29.75670837 97.45693726 29.40965271 98.32138062 C14.00726361 136.83589045 14.00726361 136.83589045 15.41868591 176.56796265 C16.94322637 178.44894496 18.46719137 179.73755388 20.43040466 181.15390015 C21.14583435 181.74171265 21.86126404 182.32952515 22.59837341 182.93515015 C31.24140332 189.59014218 41.68791177 193.48002058 52.43040466 195.15390015 C53.60602966 195.40140015 54.78165466 195.64890015 55.99290466 195.90390015 C61.06059335 194.79822261 62.89678247 191.57250124 65.92649841 187.53671265 C67.60831539 185.34163513 67.60831539 185.34163513 67.43040466 183.15390015 C66.36821716 182.66921265 65.30602966 182.18452515 64.21165466 181.68515015 C46.54909531 173.39128144 46.54909531 173.39128144 42.43040466 165.15390015 C43.18257263 165.68177124 43.18257263 165.68177124 43.94993591 166.2203064 C66.67421675 181.04722217 96.66524719 185.66237386 123.10325623 180.70761108 C135.499825 178.03061118 148.01441075 173.46383932 158.43040466 166.15390015 C158.76040466 166.48390015 159.09040466 166.81390015 159.43040466 167.15390015 C153.64346993 175.83430225 143.77721041 180.29789854 134.43040466 184.15390015 C134.84032654 184.69659546 135.25024841 185.23929077 135.67259216 185.7984314 C136.21142029 186.51386108 136.75024841 187.22929077 137.30540466 187.96640015 C138.10591248 189.02794312 138.10591248 189.02794312 138.92259216 190.1109314 C140.13855248 191.75846312 141.29456607 193.45014226 142.43040466 195.15390015 C158.78890738 194.62620651 171.40826947 189.69717859 183.73899841 178.9624939 C186.48464416 176.02661866 188.33358194 173.96666785 188.55711365 169.78158569 C188.45334725 166.76386783 188.21832355 163.7847094 187.93040466 160.77890015 C187.83001892 159.6690979 187.72963318 158.55929565 187.62620544 157.41586304 C185.47763919 135.95915277 180.7436445 99.64137614 164.19602966 84.0484314 C152.31511137 75.90966675 138.97865171 70.42648779 124.43040466 71.15390015 C126.47423115 73.19772664 127.64759136 73.76829656 130.28977966 74.7828064 C131.06990417 75.09153687 131.85002869 75.40026733 132.65379333 75.71835327 C133.48757507 76.04770874 134.32135681 76.37706421 135.18040466 76.71640015 C143.97806458 80.28331294 151.68644517 84.69649313 159.43040466 90.15390015 C156.69829822 90.15390015 154.64020975 88.9981121 152.17430115 87.9180603 C145.03407613 84.80305223 137.9087364 82.24565177 130.36790466 80.27890015 C129.59583679 80.07627563 128.82376892 79.87365112 128.02830505 79.66488647 C99.14975336 72.43041742 64.20863235 77.07606886 38.43040466 92.15390015 C38.43040466 91.49390015 38.43040466 90.83390015 38.43040466 90.15390015 C38.95892029 89.9012439 39.48743591 89.64858765 40.03196716 89.38827515 C43.03030559 87.84515635 45.9015611 86.11829749 48.80540466 84.40390015 C57.6017319 79.29913866 66.73907318 75.2773112 76.43040466 72.15390015 C76.43040466 71.82390015 76.43040466 71.49390015 76.43040466 71.15390015 C70.7788747 70.9403979 66.07531699 71.48908071 60.68040466 73.27890015 Z " fill="#7289D9" transform="translate(31.569595336914063,-0.153900146484375)"/>
<path d="M0 0 C4.52619013 2.30746948 8.56577716 5.46128969 11 10 C12.52412803 15.5728853 12.52105803 20.87215491 10.1328125 26.17578125 C7.57274869 30.29836676 4.46292852 33.17312813 -0.17578125 34.73046875 C-5.22313554 35.61092261 -8.85565623 34.78939811 -13.2734375 32.24609375 C-16.77897886 29.71607634 -18.64721532 27.05835403 -20 23 C-20.48988853 17.43454509 -20.76814541 12.59319048 -18.3125 7.5 C-12.87564671 1.62232077 -8.18290083 -1.10453604 0 0 Z " fill="#7289D9" transform="translate(109,125)"/>
<path d="M0 0 C5.67507225 2.00296668 9.30675089 5.61350179 12 11 C12.68567286 18.40751496 12.70148901 24.06127704 8 30 C4.04159284 33.49812726 0.42089031 34.79789159 -4.7578125 35.1640625 C-9.740279 34.79949178 -12.92612212 32.13192533 -16.3125 28.5625 C-19.54321913 23.65659317 -20.60196955 19.91936727 -20 14 C-16.8086883 4.48046225 -10.26034458 -1.03562357 0 0 Z " fill="#7289D9" transform="translate(163,125)"/>
<path d="M0 0 C0 0.66 0 1.32 0 2 C0.99 2.66 1.98 3.32 3 4 C0.62586674 4.9605272 -1.74925519 5.91847353 -4.125 6.875 C-4.79015625 7.14441406 -5.4553125 7.41382812 -6.140625 7.69140625 C-10.0557408 9.26512927 -13.97956537 10.709954 -18 12 C-18 11.34 -18 10.68 -18 10 C-15.73612378 8.38927867 -13.48281689 6.89786995 -11.125 5.4375 C-10.47402344 5.02564453 -9.82304688 4.61378906 -9.15234375 4.18945312 C-2.50132979 0 -2.50132979 0 0 0 Z " fill="#748ECD" transform="translate(88,80)"/>
<path d="M0 0 C3.54243452 1.36591169 6.92627929 2.90931484 10.3125 4.625 C11.63701172 5.29402344 11.63701172 5.29402344 12.98828125 5.9765625 C13.65214844 6.31429687 14.31601563 6.65203125 15 7 C14.38125 7.28875 13.7625 7.5775 13.125 7.875 C10.86674235 8.93720042 10.86674235 8.93720042 9 11 C7.49403892 9.54782324 5.99537896 8.08807139 4.5 6.625 C3.6646875 5.81289062 2.829375 5.00078125 1.96875 4.1640625 C0 2 0 2 0 0 Z " fill="#748ECE" transform="translate(74,165)"/>
<path d="M0 0 C0.94875 0.04125 1.8975 0.0825 2.875 0.125 C3.205 0.785 3.535 1.445 3.875 2.125 C6.40233235 2.78055119 6.40233235 2.78055119 8.875 3.125 C5.58401716 5.31898856 5.02667419 5.34003664 1.3125 4.875 C0.52746094 4.78734375 -0.25757812 4.6996875 -1.06640625 4.609375 C-3.125 4.125 -3.125 4.125 -5.125 2.125 C-3.125 0.125 -3.125 0.125 0 0 Z " fill="#6B88B4" transform="translate(102.125,154.875)"/>
<path d="M0 0 C3.12500425 4.68750637 2.38694579 9.62995703 1.5 15.0625 C1.2525 16.0215625 1.2525 16.0215625 1 17 C-1.32613583 13.51079626 -1.24247293 12.05047454 -1.1875 7.9375 C-1.18105469 6.87402344 -1.17460938 5.81054688 -1.16796875 4.71484375 C-1 2 -1 2 0 0 Z " fill="#708BC3" transform="translate(90,134)"/>
<path d="M0 0 C1.98 0 3.96 0 6 0 C5.67 2.97 5.34 5.94 5 9 C1.7457985 6.16569547 0.4793247 4.31392226 0 0 Z " fill="#748DCD" transform="translate(144,146)"/>
<path d="M0 0 C0.99386719 0.00902344 1.98773438 0.01804688 3.01171875 0.02734375 C4.15060547 0.04474609 4.15060547 0.04474609 5.3125 0.0625 C2.97078261 2.40421739 2.08189546 2.454423 -1.125 2.8125 C-1.90746094 2.91046875 -2.68992188 3.0084375 -3.49609375 3.109375 C-5.6875 3.0625 -5.6875 3.0625 -8.6875 1.0625 C-5.53819107 0.01273036 -3.29935544 -0.03881595 0 0 Z " fill="#6885B1" transform="translate(161.6875,156.9375)"/>
<path d="M0 0 C1.37140038 0.01987537 2.7426453 0.05555764 4.11328125 0.10546875 C4.81517578 0.11900391 5.51707031 0.13253906 6.24023438 0.14648438 C7.96907954 0.18176693 9.6975289 0.23557292 11.42578125 0.29296875 C11.42578125 0.62296875 11.42578125 0.95296875 11.42578125 1.29296875 C2.51578125 2.28296875 2.51578125 2.28296875 -6.57421875 3.29296875 C-3.57421875 0.29296875 -3.57421875 0.29296875 0 0 Z " fill="#6F8CBA" transform="translate(108.57421875,76.70703125)"/>
<path d="M0 0 C2 2 2 2 2.1953125 3.9453125 C2.13020833 5.96354167 2.06510417 7.98177083 2 10 C0.68 10 -0.64 10 -2 10 C-2 8.68 -2 7.36 -2 6 C-1.34 6 -0.68 6 0 6 C0 4.02 0 2.04 0 0 Z " fill="#718BC2" transform="translate(173,134)"/>
<path d="M0 0 C1 2 1 2 0.44140625 4.1640625 C0.15136719 4.97617188 -0.13867188 5.78828125 -0.4375 6.625 C-0.72496094 7.44226563 -1.01242188 8.25953125 -1.30859375 9.1015625 C-1.53675781 9.72804688 -1.76492187 10.35453125 -2 11 C-2.33 11 -2.66 11 -3 11 C-3.75 7.75 -3.75 7.75 -4 4 C-2.0625 1.5625 -2.0625 1.5625 0 0 Z " fill="#6F8AC4" transform="translate(56,110)"/>
<path d="M0 0 C3.45925163 1.2491742 6.14693203 2.67527795 9 5 C6.75 5.75 6.75 5.75 4 6 C1.6875 4.1875 1.6875 4.1875 0 2 C0 1.34 0 0.68 0 0 Z " fill="#718BC3" transform="translate(74,165)"/>
<path d="M0 0 C1.32 0 2.64 0 4 0 C3.25 4.75 3.25 4.75 1 7 C0.67 4.69 0.34 2.38 0 0 Z " fill="#748DC6" transform="translate(116,146)"/>
<path d="M0 0 C0 0.99 0 1.98 0 3 C-1.98 3 -3.96 3 -6 3 C-6 2.01 -6 1.02 -6 0 C-2.25 -1.125 -2.25 -1.125 0 0 Z " fill="#738DCC" transform="translate(112,74)"/>
<path d="M0 0 C0.99 0.33 1.98 0.66 3 1 C1.35 2.65 -0.3 4.3 -2 6 C-2 5.34 -2 4.68 -2 4 C-2.66 3.67 -3.32 3.34 -4 3 C-2.1875 1.4375 -2.1875 1.4375 0 0 Z " fill="#6E87CA" transform="translate(190,165)"/>
<path d="M0 0 C1.32 0 2.64 0 4 0 C3.67 2.31 3.34 4.62 3 7 C0 3.375 0 3.375 0 0 Z " fill="#718DB9" transform="translate(144,146)"/>
</svg>
