<?xml version="1.0" encoding="UTF-8"?>
<svg version="1.1" xmlns="http://www.w3.org/2000/svg" width="960" height="960">
<path d="M0 0 C1.81568985 -0.01052147 1.81568985 -0.01052147 3.6680603 -0.02125549 C7.55088059 -0.03865769 11.4335484 -0.04510738 15.31640625 -0.046875 C15.97783504 -0.04731686 16.63926384 -0.04775871 17.32073593 -0.04821396 C37.0170061 -0.05511541 56.37212477 0.21895396 75.87890625 3.203125 C77.09562012 3.38004883 78.31233398 3.55697266 79.56591797 3.73925781 C160.98244547 15.72658634 237.84936341 49.09738252 300.87890625 102.203125 C301.65451904 102.8513623 301.65451904 102.8513623 302.44580078 103.51269531 C317.79172476 116.35602538 333.09801504 129.92950638 346.1171875 145.1640625 C348.07496364 147.4300473 350.10119573 149.62455994 352.12890625 151.828125 C357.71543748 158.02908014 362.80387486 164.58337025 367.87890625 171.203125 C368.36262695 171.82993164 368.84634766 172.45673828 369.34472656 173.10253906 C421.63755148 240.99691967 453.41118305 323.74784817 459.87890625 409.203125 C459.93530273 409.87682129 459.99169922 410.55051758 460.04980469 411.24462891 C468.15855274 509.96503785 440.62383433 613.40435504 379.87890625 700.203125 C379.4092041 700.85007324 378.93950195 701.49702148 378.45556641 702.16357422 C368.72940892 715.48552166 358.53758178 728.49910606 347.29296875 740.578125 C345.38663578 742.65103076 343.5450056 744.75121134 341.7109375 746.88671875 C337.34008428 751.89826993 332.65234821 756.57588758 327.94140625 761.265625 C327.08611328 762.12478516 326.23082031 762.98394531 325.34960938 763.86914062 C320.35513186 768.8559988 315.25359779 773.62999312 309.87890625 778.203125 C308.86946116 779.08034899 307.86032315 779.95792652 306.8515625 780.8359375 C281.34926079 802.67549252 253.55326755 821.50164256 223.87890625 837.203125 C222.5026709 837.93716553 222.5026709 837.93716553 221.09863281 838.68603516 C137.51657035 882.92968873 38.91604572 897.89405046 -111.39819336 869.75634766 C-113.12109375 869.203125 -113.12109375 869.203125 -115.12109375 868.203125 C-114.45053078 864.77314813 -113.10778134 862.14544778 -111.3828125 859.1171875 C-110.81626953 858.1159082 -110.24972656 857.11462891 -109.66601562 856.08300781 C-109.05306641 855.00889648 -108.44011719 853.93478516 -107.80859375 852.828125 C-106.52009618 850.54468664 -105.23234828 848.2608251 -103.9453125 845.9765625 C-103.29868652 844.83155273 -102.65206055 843.68654297 -101.98583984 842.50683594 C-79.73944408 803.09360898 -64.25484075 764.48658624 -53.03662109 720.65869141 C-49.94283205 708.58723878 -46.77114287 696.53597343 -43.61275768 684.4812994 C-42.26940152 679.35297183 -40.93046948 674.22350328 -39.59350586 669.09350586 C-39.05933069 667.04544493 -38.52506486 664.99740768 -37.9907589 662.94938087 C-37.49129258 661.03370179 -36.99280492 659.11776763 -36.49433899 657.201828 C-36.19553329 656.05708511 -35.8967276 654.91234222 -35.58886719 653.73291016 C-35.32829529 652.73264801 -35.06772339 651.73238586 -34.79925537 650.70181274 C-34.29730159 648.85236313 -33.72709882 647.02114022 -33.12109375 645.203125 C-32.46109375 645.203125 -31.80109375 645.203125 -31.12109375 645.203125 C-30.03781154 646.80854323 -29.03058858 648.46548497 -28.05859375 650.140625 C-14.19094812 672.36295878 13.31016665 685.30734755 38.00390625 691.453125 C85.57933492 702.34594573 137.96780396 689.350358 178.78125 663.796875 C192.16658994 655.18135903 204.38794281 645.19448133 215.87890625 634.203125 C216.82765625 633.295625 217.77640625 632.388125 218.75390625 631.453125 C224.95518191 625.38965546 230.58167789 619.06790053 235.87890625 612.203125 C236.49668945 611.40793457 236.49668945 611.40793457 237.12695312 610.59667969 C256.35583785 585.6858764 270.7871522 557.96835248 280.87890625 528.203125 C281.19698242 527.26678223 281.51505859 526.33043945 281.84277344 525.36572266 C289.66362025 501.93995737 294.54369927 477.77635811 296.87890625 453.203125 C296.97316895 452.23391113 297.06743164 451.26469727 297.16455078 450.26611328 C297.99159109 440.831344 298.12197339 431.41765961 298.12890625 421.953125 C298.12958099 421.11852753 298.13025574 420.28393005 298.13095093 419.42404175 C298.11274981 405.17086236 297.32805438 391.26977537 294.87890625 377.203125 C294.72325195 376.28208984 294.56759766 375.36105469 294.40722656 374.41210938 C287.51771199 335.16525388 270.85295035 296.40251255 245.1953125 265.77978516 C243.89357928 264.22069889 242.61907201 262.64245107 241.34765625 261.05859375 C230.63189365 247.87058946 218.45014796 235.44260942 204.87890625 225.203125 C203.88648926 224.43669678 203.88648926 224.43669678 202.87402344 223.65478516 C191.40630933 214.81078322 179.64046653 207.05038149 166.87890625 200.203125 C166.2029541 199.84025391 165.52700195 199.47738281 164.83056641 199.10351562 C160.24089196 196.66999513 155.58756575 194.39663987 150.87890625 192.203125 C150.11449219 191.84508789 149.35007812 191.48705078 148.5625 191.11816406 C127.29670054 181.27889168 104.85473584 174.67738872 81.87890625 170.203125 C80.71125732 169.97351074 80.71125732 169.97351074 79.52001953 169.73925781 C1.77121175 155.0072078 -88.15450256 170.95492418 -153.87109375 215.578125 C-211.16065648 255.31794385 -248.46073867 314.36607107 -261.57495117 382.78564453 C-264.43183683 398.6209536 -265.53116714 414.13242497 -265.49609375 430.203125 C-265.49554993 431.1461145 -265.4950061 432.089104 -265.4944458 433.06066895 C-265.45458842 448.13568574 -264.55400391 462.47087205 -261.12109375 477.203125 C-260.90678711 478.15944824 -260.69248047 479.11577148 -260.47167969 480.10107422 C-253.88335342 508.99093286 -242.84068852 537.26370367 -225.12109375 561.203125 C-224.69505859 561.78707031 -224.26902344 562.37101563 -223.83007812 562.97265625 C-214.38363014 575.81982551 -203.61741684 587.54648475 -190.12109375 596.203125 C-189.56244629 596.5630957 -189.00379883 596.92306641 -188.42822266 597.29394531 C-181.51646299 601.68530095 -175.54804244 605.203125 -167.12109375 605.203125 C-163.81914977 599.15309441 -161.9011498 593.40340053 -160.32421875 586.7109375 C-160.08572205 585.72495575 -159.84722534 584.738974 -159.60150146 583.72311401 C-159.10264651 581.64844931 -158.60876625 579.57258273 -158.11962891 577.49560547 C-157.37407346 574.34073386 -156.60609454 571.19191331 -155.8359375 568.04296875 C-155.35150093 566.01595041 -154.86838415 563.98861612 -154.38671875 561.9609375 C-154.1586554 561.03145294 -153.93059204 560.10196838 -153.69561768 559.14431763 C-151.2159404 548.91217814 -151.2159404 548.91217814 -153.25445557 538.93069458 C-154.78389759 536.61147867 -156.44539819 534.41903453 -158.12109375 532.203125 C-175.68423229 506.71555011 -187.01797826 475.33992265 -187.359375 444.171875 C-187.37406578 443.05431824 -187.37406578 443.05431824 -187.38905334 441.91418457 C-187.56900818 424.6555421 -187.17580121 408.07922478 -183.12109375 391.203125 C-182.90678711 390.30255371 -182.69248047 389.40198242 -182.47167969 388.47412109 C-179.28346014 375.51008718 -174.67683857 363.32424015 -169.12109375 351.203125 C-168.84185059 350.57889648 -168.56260742 349.95466797 -168.27490234 349.31152344 C-161.54039927 334.35969092 -151.96702574 320.46138203 -141.12109375 308.203125 C-140.66234863 307.68411621 -140.20360352 307.16510742 -139.73095703 306.63037109 C-106.13413207 268.84640474 -58.52796787 246.1899075 -8.12109375 242.203125 C-1.16699466 241.83249546 5.79165773 241.81296871 12.75390625 241.828125 C13.69711731 241.82866882 14.64032837 241.82921265 15.61212158 241.82977295 C38.60558991 241.89054949 59.98890086 244.97720838 81.87890625 252.203125 C82.94044922 252.54682129 82.94044922 252.54682129 84.0234375 252.89746094 C126.62214297 266.92734051 160.84103086 298.62479488 180.94140625 338.23046875 C192.33248199 361.23286738 198.95673306 386.76595337 199.08203125 412.484375 C199.08904556 413.44749603 199.09605988 414.41061707 199.10328674 415.40292358 C199.1207329 418.5030386 199.12714129 421.60296265 199.12890625 424.703125 C199.12991837 426.29063568 199.12991837 426.29063568 199.13095093 427.91021729 C199.11507078 443.56567083 198.6487589 458.75901551 195.87890625 474.203125 C195.62947266 475.69416748 195.62947266 475.69416748 195.375 477.21533203 C187.01458035 526.6269604 165.63914273 577.14595092 123.58642578 607.03027344 C113.70787924 613.8155948 103.26980369 618.55342767 91.87890625 622.203125 C91.24742676 622.41485352 90.61594727 622.62658203 89.96533203 622.84472656 C69.27458418 629.57281824 45.250354 628.51516887 25.56640625 619.453125 C8.81865837 610.4835258 -1.57388201 596.9208727 -7.359375 579.02734375 C-10.26488202 568.25461772 -9.66370828 557.71590648 -7.4453125 546.9140625 C-7.17980591 545.60903778 -7.17980591 545.60903778 -6.90893555 544.27764893 C-4.96419158 535.02236345 -2.3495573 526.00217261 0.37890625 516.953125 C0.90395861 515.18586605 1.42819104 513.41836332 1.95166016 511.65063477 C4.64102992 502.58893327 7.37952116 493.5421098 10.12109375 484.49609375 C20.56311017 450.2364642 20.56311017 450.2364642 27.87890625 415.203125 C28.07613281 413.99269531 28.07613281 413.99269531 28.27734375 412.7578125 C31.07710314 392.25146668 27.44441172 372.0721008 15.8828125 354.7421875 C8.79940309 345.76710735 -2.1203963 339.58589934 -13.35546875 337.484375 C-33.44889484 335.44097574 -51.37156521 339.66723064 -67.55859375 352.078125 C-76.65564883 359.92566833 -83.23961262 368.76380818 -89.12109375 379.203125 C-89.65605469 380.13640625 -90.19101562 381.0696875 -90.7421875 382.03125 C-108.86488095 415.73475262 -107.71526666 457.34316484 -97.36669922 493.19140625 C-96.2503163 496.89367416 -95.11685667 500.21154242 -93.37109375 503.6796875 C-89.85457334 513.5918794 -95.16279936 526.4979998 -97.5546875 536.37109375 C-98.02108266 538.31805579 -98.48682899 540.26517335 -98.95198059 542.21243286 C-99.95469959 546.40553749 -100.96119679 550.59771002 -101.97058105 554.78921509 C-103.5771544 561.4626575 -105.17315982 568.13859696 -106.76660156 574.81518555 C-107.03768927 575.9509884 -107.30877697 577.08679125 -107.58807945 578.25701237 C-108.14392534 580.58608501 -108.69972824 582.91516791 -109.25548935 585.24426079 C-110.11015932 588.82508068 -110.96554042 592.40573008 -111.82107544 595.98634338 C-117.51545033 619.82362643 -123.17260685 643.6696283 -128.78418255 667.52654362 C-130.21018074 673.58890948 -131.63889913 679.65059837 -133.07516479 685.71054077 C-134.43365344 691.4424674 -135.78451864 697.17614002 -137.12988853 702.91115952 C-137.62182442 705.00267895 -138.11631365 707.09360005 -138.61377907 709.18381119 C-141.19510863 720.03811114 -143.52714463 730.89178975 -145.38574219 741.89526367 C-145.62928625 743.32806278 -145.62928625 743.32806278 -145.8777504 744.78980732 C-147.57702338 755.26347187 -148.27520607 765.70598823 -148.32421875 776.30859375 C-148.33100647 777.33606216 -148.33779419 778.36353058 -148.3447876 779.4221344 C-148.36169521 782.74499579 -148.36798589 786.06772338 -148.37109375 789.390625 C-148.37343018 790.52576538 -148.3757666 791.66090576 -148.37817383 792.83044434 C-148.39508431 814.72567962 -147.16342502 836.41101582 -145.12109375 858.203125 C-195.48297578 842.3021167 -243.92815727 809.81649776 -282.27734375 773.8359375 C-284.4636425 771.81180926 -286.6739055 769.8540892 -288.9296875 767.91015625 C-293.36755113 764.04339904 -297.53407378 759.9376763 -301.68359375 755.765625 C-302.39966797 755.05341797 -303.11574219 754.34121094 -303.85351562 753.60742188 C-308.4826477 748.96986553 -312.85756389 744.17691914 -317.12109375 739.203125 C-318.05899879 738.13202634 -318.99775282 737.06167029 -319.9375 735.9921875 C-340.58011366 712.30687645 -358.81571991 686.39829938 -373.75439453 658.73388672 C-374.68423424 657.01207207 -375.62307396 655.29509406 -376.56982422 653.58251953 C-416.90384258 580.56746821 -431.80829639 497.04875677 -411.71154785 321.22973633 C-405.6207225 300.32424068 -398.1374506 280.02911273 -389.12109375 260.203125 C-388.6509082 259.1625293 -388.18072266 258.12193359 -387.69628906 257.04980469 C-370.65869509 219.64092367 -347.93651598 185.28746298 -321.12109375 154.203125 C-320.16396484 153.09324219 -320.16396484 153.09324219 -319.1875 151.9609375 C-317.50986143 150.03145942 -315.81712299 148.11645517 -314.12109375 146.203125 C-313.47938232 145.47657715 -312.8376709 144.7500293 -312.17651367 144.00146484 C-306.65955714 137.80709788 -300.93676853 131.86681504 -295.05859375 126.015625 C-294.21232422 125.16548828 -293.36605469 124.31535156 -292.49414062 123.43945312 C-287.53233518 118.48529889 -282.4596032 113.74741613 -277.12109375 109.203125 C-276.11166907 108.32587752 -275.10253228 107.44829862 -274.09375 106.5703125 C-230.24218023 69.01688765 -179.75491147 40.74145203 -125.12109375 22.203125 C-124.30012207 21.92130371 -123.47915039 21.63948242 -122.63330078 21.34912109 C-83.55092558 8.03660995 -41.3308165 0.16102916 0 0 Z " fill="#BD071B" transform="translate(463.12109375,35.796875)"/>
</svg>
