<?xml version="1.0" encoding="UTF-8"?>
<svg version="1.1" xmlns="http://www.w3.org/2000/svg" width="2400" height="2400">
<path d="M0 0 C3.18121008 0.00564758 6.36241481 0.00846349 9.54362869 0.0110817 C39.49521434 0.04690712 69.32414344 0.32610907 99.17213821 3.06482315 C102.083766 3.33089829 104.99628376 3.58509511 107.90907669 3.83807755 C201.30465173 12.04630923 293.57191226 30.91316244 519.08070755 115.43072891 C521.05301739 116.3703488 523.02646392 117.30755759 524.999897 118.24481583 C541.34960086 126.02063012 557.4994445 134.00976136 573.3021431 142.85712051 C576.06424311 144.38498209 578.84546353 145.87153671 581.63466263 147.34930801 C595.77605894 154.85654136 609.46436419 162.95664779 623.09015274 171.34863663 C626.37344464 173.3672718 629.67351084 175.35123231 633.00185013 177.29462051 C658.01111421 191.9112389 682.17627955 208.51215902 705.63075638 225.50555801 C706.35931839 226.03254288 707.0878804 226.55952774 707.83852005 227.10248184 C716.54519757 233.43536199 725.08935191 239.9825433 733.62685013 246.54071426 C735.61392175 248.0653645 737.6050972 249.58428063 739.59950638 251.09930801 C751.11824809 259.88092298 762.3342525 269.03722442 773.3568306 278.43280411 C776.72194465 281.29876132 780.12964242 284.10340304 783.56825638 286.88055801 C788.33132855 290.75618734 792.87689887 294.8304009 797.39638138 298.98602676 C799.53267387 300.94211053 801.69106295 302.85993499 803.88075638 304.75555801 C808.20572646 308.51793036 812.42557887 312.39238255 816.63783646 316.27972794 C818.59694322 318.08512198 820.56510608 319.87704042 822.54652786 321.6581459 C833.40657007 331.49703569 843.69909161 341.92158645 854.04726028 352.29169083 C856.78359583 355.03375863 859.5244482 357.77126096 862.26662636 360.50748444 C864.4064516 362.64367463 866.54386323 364.78226712 868.68058014 366.92156601 C869.69000726 367.9316524 870.70015593 368.94101832 871.71109009 369.94959641 C876.79604292 375.02527852 881.79153086 380.12165829 886.45418167 385.5908699 C889.13608334 388.70162631 891.99336261 391.65022372 894.81825638 394.63055801 C899.70850968 399.82564486 904.34755355 405.13158559 908.80263138 410.70868301 C911.09446103 413.50237317 913.4955745 416.16014579 915.94325638 418.81805801 C920.3570275 423.62446522 924.50685947 428.58915885 928.60194778 433.66766739 C930.14512675 435.56644602 931.70516435 437.4506154 933.26747513 439.33368301 C939.82960037 447.24519798 946.28230092 455.20398717 952.48671341 463.40057755 C954.2024395 465.65926221 955.93014366 467.90856039 957.65810013 470.15790176 C999.80764403 525.10657036 1037.27676824 583.90467892 1068.93935013 645.50165176 C1070.73345541 648.99097463 1072.54766857 652.46553245 1074.41591263 655.91571426 C1115.49296019 731.88175646 1144.88034162 815.66892897 1200.13075638 1093.00555801 C1200.24911346 1094.2917453 1200.24911346 1094.2917453 1200.3698616 1095.60391617 C1200.96679708 1102.17036454 1201.47542185 1108.74121075 1201.94325638 1115.31805801 C1202.03152695 1116.54362411 1202.11979752 1117.76919022 1202.21074295 1119.03189468 C1204.02610924 1144.77976832 1204.30666635 1170.48911095 1204.26131439 1196.29357147 C1204.25567283 1199.55383987 1204.2528532 1202.81410306 1204.2502327 1206.07437515 C1204.21527134 1235.98993295 1204.00636019 1265.79838828 1201.19649124 1295.60547256 C1200.92825944 1298.47870127 1200.67466401 1301.35298011 1200.42323685 1304.22772598 C1192.06110442 1398.98341913 1172.69689592 1492.3393339 1094.94325638 1702.31805801 C1094.63732559 1702.98448318 1094.33139481 1703.65090836 1094.01619339 1704.33752823 C1080.93833026 1732.79843933 1066.9821887 1760.67136999 1051.36024857 1787.83075333 C1049.65260888 1790.82824352 1048.00024862 1793.85350599 1046.35121536 1796.8834877 C1035.80883733 1816.20340122 1024.10221947 1834.97921826 1011.94325638 1853.31805801 C1011.28744583 1854.31128067 1010.63163528 1855.30450333 1009.95595169 1856.32782364 C984.04092458 1895.55243929 956.50735501 1933.64776464 926.03139114 1969.47797012 C923.10041977 1972.9294566 920.22610887 1976.42024064 917.38075638 1979.94305801 C913.50512705 1984.70613019 909.43091349 1989.25170051 905.27528763 1993.77118301 C903.31920386 1995.9074755 901.40137941 1998.06586459 899.50575638 2000.25555801 C895.74338403 2004.58052809 891.86893184 2008.80038051 887.98158646 2013.01263809 C886.17619242 2014.97174485 884.38427398 2016.93990771 882.60316849 2018.9213295 C872.7642787 2029.7813717 862.33972794 2040.07389325 851.96962357 2050.42206192 C849.22755576 2053.15839746 846.49005343 2055.89924984 843.75382996 2058.64142799 C841.61763976 2060.78125323 839.47904727 2062.91866486 837.33974838 2065.05538177 C836.32966199 2066.06480889 835.32029607 2067.07495757 834.31171799 2068.08589172 C829.23603587 2073.17084455 824.1396561 2078.1663325 818.67044449 2082.82898331 C815.55968808 2085.51088498 812.61109068 2088.36816425 809.63075638 2091.19305801 C804.43566953 2096.08331132 799.1297288 2100.72235519 793.55263138 2105.17743301 C790.75894122 2107.46926266 788.1011686 2109.87037614 785.44325638 2112.31805801 C780.63684918 2116.73182914 775.67215554 2120.88166111 770.593647 2124.97674942 C768.69486838 2126.51992838 766.81069899 2128.07996598 764.92763138 2129.64227676 C757.02179802 2136.19968946 749.06898783 2142.64833289 740.87831497 2148.84833145 C738.56705052 2150.603796 736.26498666 2152.37103452 733.96278763 2154.13837051 C724.63478391 2161.28972745 715.27757013 2168.36728249 705.65224075 2175.11395645 C703.88190729 2176.36128283 702.12283307 2177.62331511 700.36513138 2178.88837051 C655.25044332 2211.23388282 607.57262001 2240.14146201 558.24403763 2265.57196426 C554.9742479 2267.25806847 551.72033436 2268.96686381 548.48622513 2270.72040176 C472.47590981 2311.8276715 388.64410453 2341.24167973 172.94325638 2389.31805801 C171.7001973 2389.49821457 171.7001973 2389.49821457 170.43202591 2389.68201065 C150.594906 2392.53745801 130.71893969 2394.74263325 110.75575638 2396.50555801 C109.43369186 2396.6239151 109.43369186 2396.6239151 108.08491898 2396.74466324 C101.37564114 2397.33777679 94.66212101 2397.84661329 87.94325638 2398.31805801 C86.70495071 2398.40632858 85.46664505 2398.49459915 84.19081497 2398.58554459 C58.78235129 2400.36236894 33.41919246 2400.68195615 7.95517731 2400.63611603 C4.76938959 2400.63047143 1.58360721 2400.62765357 -1.6021843 2400.62503433 C-31.57125011 2400.58922256 -61.41692526 2400.31043119 -91.28239059 2397.57129288 C-94.20044836 2397.30494106 -97.11941546 2397.05083339 -100.03867722 2396.79803848 C-194.63995292 2388.50968652 -288.01066094 2369.01972438 -558.75498581 2261.56464005 C-561.25008909 2260.21334631 -563.75112471 2258.87337528 -566.25205612 2257.53290176 C-580.03959136 2250.10941489 -593.58357302 2242.29586519 -607.05674362 2234.31805801 C-607.94668015 2233.79179825 -608.83661667 2233.26553848 -609.75352097 2232.72333145 C-664.41311319 2200.34083841 -716.808856 2163.58023394 -765.21665573 2122.40619278 C-768.66814221 2119.47522141 -772.15892625 2116.60091051 -775.68174362 2113.75555801 C-780.4448158 2109.87992869 -784.99038612 2105.80571513 -789.50986862 2101.65008926 C-791.64616111 2099.6940055 -793.8045502 2097.77618104 -795.99424362 2095.88055801 C-800.3192137 2092.11818567 -804.53906612 2088.24373348 -808.7513237 2084.35638809 C-810.71043046 2082.55099405 -812.67859332 2080.75907561 -814.66001511 2078.97797012 C-825.52005731 2069.13908034 -835.81257885 2058.71452958 -846.16074753 2048.3444252 C-848.89708307 2045.6023574 -851.63793544 2042.86485506 -854.3801136 2040.12863159 C-856.51993884 2037.9924414 -858.65735047 2035.85384891 -860.79406738 2033.71455002 C-861.8034945 2032.70446363 -862.81364318 2031.69509771 -863.82457733 2030.68651962 C-868.90953016 2025.61083751 -873.9050181 2020.51445774 -878.56766891 2015.04524612 C-881.24957059 2011.93448972 -884.10684986 2008.98589231 -886.93174362 2006.00555801 C-891.82199693 2000.81047117 -896.4610408 1995.50453044 -900.91611862 1989.92743301 C-903.20794827 1987.13374286 -905.60906174 1984.47597024 -908.05674362 1981.81805801 C-912.47051474 1977.01165081 -916.62034672 1972.04695718 -920.71543503 1966.96844864 C-922.25861399 1965.06967001 -923.81865159 1963.18550063 -925.38096237 1961.30243301 C-931.93837507 1953.39659966 -938.3870185 1945.44378946 -944.58701706 1937.25311661 C-946.34248161 1934.94185215 -948.10972013 1932.6397883 -949.87705612 1930.33758926 C-957.02841306 1921.00958555 -964.1059681 1911.65237177 -970.85264206 1902.02704239 C-972.09996844 1900.25670893 -973.36200072 1898.49763471 -974.62705612 1896.73993301 C-1006.84636833 1851.8012656 -1035.77883386 1804.30297849 -1061.05283737 1755.13446426 C-1062.84694265 1751.64514139 -1064.66115581 1748.17058358 -1066.52939987 1744.72040176 C-1107.60644744 1668.75435957 -1136.99382887 1584.96718705 -1194.25986862 1280.91571426 C-1194.32629562 1280.03999771 -1194.39272263 1279.16428116 -1194.46116257 1278.26202774 C-1195.68638845 1261.39149138 -1196.2236787 1244.56239871 -1196.25986862 1227.65008926 C-1196.26688804 1225.61457675 -1196.27397488 1223.57906446 -1196.28112411 1221.5435524 C-1196.30053517 1215.07255108 -1196.30555807 1208.60158551 -1196.30674362 1202.13055801 C-1196.30718548 1201.02911076 -1196.30762733 1199.9276635 -1196.30808258 1198.79283905 C-1196.31467899 1167.45965092 -1196.25316051 1136.25191254 -1193.30997849 1105.03064346 C-1193.04174668 1102.15741476 -1192.78815125 1099.28313592 -1192.53672409 1096.40839005 C-1184.23562771 1002.34135416 -1165.19654228 909.50795059 -1112.05674362 756.31805801 C-1111.67966263 755.37404129 -1111.67966263 755.37404129 -1111.29496384 754.41095352 C-1103.71938632 735.49126812 -1095.56657819 716.83421028 -1087.05674362 698.31805801 C-1086.75081284 697.65163284 -1086.44488205 696.98520767 -1086.12968063 696.2985878 C-1073.0518175 667.8376767 -1059.09567594 639.96474603 -1043.47373581 612.8053627 C-1041.76647445 609.8085366 -1040.11441865 606.78398626 -1038.46592331 603.75458145 C-1022.75639665 574.969223 -1004.78386311 547.20900469 -986.05674362 520.31805801 C-984.91471536 518.66838847 -983.77279051 517.01864733 -982.63096237 515.36883926 C-962.47303167 486.32589347 -941.05306339 458.09100944 -918.14487839 431.1581459 C-915.21390701 427.70665943 -912.33959612 424.21587539 -909.49424362 420.69305801 C-905.6186143 415.92998584 -901.54440074 411.38441552 -897.38877487 406.86493301 C-895.43269111 404.72864053 -893.51486665 402.57025144 -891.61924362 400.38055801 C-887.85687128 396.05558794 -883.98241908 391.83573552 -880.0950737 387.62347794 C-878.28967966 385.66437117 -876.49776122 383.69620832 -874.71665573 381.71478653 C-864.87776595 370.85474433 -854.45321519 360.56222278 -844.08311081 350.21405411 C-841.341043 347.47771856 -838.60354067 344.73686619 -835.8673172 341.99468803 C-833.731127 339.8548628 -831.59253451 337.71745116 -829.45323563 335.58073425 C-828.44314923 334.57130714 -827.43378332 333.56115846 -826.42520523 332.5502243 C-821.34952311 327.46527147 -816.25314335 322.46978353 -810.78393173 317.80713272 C-807.67317533 315.12523105 -804.72457792 312.26795178 -801.74424362 309.44305801 C-796.54915678 304.55280471 -791.24321605 299.91376084 -785.66611862 295.45868301 C-782.87242847 293.16685337 -780.21465584 290.76573989 -777.55674362 288.31805801 C-772.75033642 283.90428689 -767.78564279 279.75445492 -762.70713425 275.65936661 C-760.80835562 274.11618765 -758.92418623 272.55615005 -757.04111862 270.99383926 C-749.12960366 264.43171402 -741.17081446 257.97901347 -732.97422409 251.77460098 C-730.71553943 250.05887489 -728.46624125 248.33117073 -726.21689987 246.60321426 C-671.26823128 204.45367037 -612.47012271 166.98454615 -550.87314987 135.32196426 C-547.383827 133.52785898 -543.90926918 131.71364582 -540.45908737 129.84540176 C-464.47169462 88.75680933 -380.75937992 59.46236032 -102.86924362 4.13055801 C-102.04174606 4.05165329 -101.2142485 3.97274857 -100.36167526 3.89145279 C-66.94220462 0.74074363 -33.54962549 -0.06052805 0 0 Z " fill="#2DAAE1" transform="translate(1196.0567436218262,-0.3180580139160156)"/>
<path d="M0 0 C0.9163623 0.45342773 1.83272461 0.90685547 2.77685547 1.37402344 C15.72358326 7.81618781 28.09110214 14.79602471 40 23 C40.61665527 23.41991211 41.23331055 23.83982422 41.86865234 24.27246094 C50.72040135 30.32158896 58.92664782 36.95356948 67 44 C67.71542969 44.61488281 68.43085937 45.22976563 69.16796875 45.86328125 C73.2384042 49.37980177 77.21628372 52.99734797 81.1875 56.625 C81.68709229 57.08068359 82.18668457 57.53636719 82.70141602 58.00585938 C85.11049531 60.21642123 87.29217559 62.35833766 89.36328125 64.8984375 C91.92652913 67.40154105 91.92652913 67.40154105 95.74609375 66.91796875 C97.16871114 66.63437617 98.58681976 66.32739366 100 66 C101.44869228 65.74310692 102.89793036 65.48927569 104.34765625 65.23828125 C145.85265554 57.24008294 186.40630395 43.1117185 225 26 C225.98452148 25.56751953 226.96904297 25.13503906 227.98339844 24.68945312 C240.27656837 19.27019028 252.31611285 13.41286562 264.25 7.25 C264.85220367 6.93961792 265.45440735 6.62923584 266.07485962 6.30944824 C273.41193872 2.51781262 280.5946937 -1.45054341 287.66308594 -5.72363281 C290 -7 290 -7 292 -7 C291.42743499 -2.95459086 290.54178715 0.59364525 289.03125 4.38671875 C288.62994873 5.39758545 288.22864746 6.40845215 287.81518555 7.44995117 C287.38117432 8.51834229 286.94716309 9.5867334 286.5 10.6875 C285.82287964 12.35872925 285.82287964 12.35872925 285.13208008 14.0637207 C273.27484305 43.03077006 257.61159458 69.59547125 238 94 C236.80503906 95.50433594 236.80503906 95.50433594 235.5859375 97.0390625 C228.72384214 105.45339142 221.08778479 113.12358237 213.4375 120.8125 C212.90687958 121.34838745 212.37625916 121.8842749 211.82955933 122.43640137 C204.89338839 129.42569997 197.77583372 135.93352544 190 142 C189.30124756 142.54744873 188.60249512 143.09489746 187.88256836 143.65893555 C186.01744551 145.10255904 184.13902568 146.52533266 182.25 147.9375 C181.25299072 148.68447144 181.25299072 148.68447144 180.23583984 149.4465332 C163.9921381 161.50393095 163.9921381 161.50393095 157 165 C170.54940213 163.91385885 183.74062013 161.96333534 197.06347656 159.27856445 C199.99597167 158.68831082 202.93119441 158.11358809 205.8671875 157.54101562 C222.57234847 154.24935098 239.12590022 150.43018667 255.375 145.3125 C256.45185059 144.97565186 257.52870117 144.63880371 258.63818359 144.29174805 C262.09507185 143.20357845 265.54773089 142.10272814 269 141 C270.17884766 140.62746094 271.35769531 140.25492188 272.57226562 139.87109375 C288.96702009 134.66780965 304.92537756 128.81737857 320.79541016 122.20239258 C321.44920654 121.93026947 322.10300293 121.65814636 322.77661133 121.3777771 C324.54753447 120.63848942 326.31609073 119.8935392 328.08447266 119.14819336 C330.40269496 118.23523075 332.56970781 117.51232187 335 117 C326.81955514 130.27290723 317.60963696 142.73778556 308 155 C307.33355469 155.85078125 306.66710938 156.7015625 305.98046875 157.578125 C295.4987396 170.81370967 284.34057681 183.49857674 273 196 C272.15050781 196.94359375 271.30101562 197.8871875 270.42578125 198.859375 C264.21363047 205.71076793 257.77895701 212.32517764 251.25 218.875 C250.45803223 219.67156006 249.66606445 220.46812012 248.85009766 221.28881836 C244.64198377 225.48593007 240.35403456 229.51946718 235.84912109 233.39599609 C233.05956915 235.81576851 230.38068332 238.34923767 227.6875 240.875 C221.98554507 246.17285341 216.08761837 251.14778616 210 256 C208.8470736 256.93287411 207.69476292 257.86650956 206.54296875 258.80078125 C205.67649829 259.49941473 205.67649829 259.49941473 204.79252338 260.21216202 C203.53542717 261.22819993 202.28209643 262.24892856 201.03394604 263.27593613 C197.73438923 265.95436275 194.44612959 268.4019499 190.79597473 270.58380127 C182.25275465 275.69827082 182.25275465 275.69827082 177.5821228 284.07336426 C176.9099177 288.839047 177.12030194 293.56606974 177.32421875 298.359375 C177.33931751 300.15207263 177.34677663 301.94484869 177.34712219 303.73760986 C177.36612764 308.45980271 177.47761808 313.17507655 177.6126709 317.89520264 C177.80712632 325.31385134 177.85123966 332.73614892 177.92090416 340.15682793 C177.93978733 342.00085432 177.96191625 343.84485032 177.98728371 345.6887989 C178.38220339 374.57952328 175.54802838 403.35138931 172 432 C171.9086377 432.76473633 171.81727539 433.52947266 171.72314453 434.31738281 C170.9172054 441.06339183 169.89375136 447.72997079 168.61328125 454.40234375 C167.55742535 459.95514198 166.55139592 465.51337075 165.60546875 471.0859375 C162.78850767 487.61289442 159.59547051 503.94615342 155.65087891 520.24902344 C154.88653004 523.47958721 154.19739757 526.72217445 153.5168457 529.97119141 C151.22812205 540.82079916 148.06485692 551.38811959 144.88378906 562.00439453 C144.0784069 564.73423958 143.30775264 567.47018841 142.5546875 570.21484375 C116.87191523 662.99364296 74.19342001 752.88981047 11 846 C10.46632813 846.77214844 9.93265625 847.54429687 9.3828125 848.33984375 C1.90365301 859.14096494 -5.93093287 869.63340268 -14 880 C-14.49419434 880.63599121 -14.98838867 881.27198242 -15.49755859 881.92724609 C-24.58781505 893.61035068 -33.96451115 905.04010579 -43.56298828 916.30859375 C-44.99399002 917.99292607 -46.41737035 919.6834628 -47.83984375 921.375 C-55.00258524 929.85690697 -62.50573753 937.97191914 -70.14160156 946.02832031 C-71.90654283 947.90084602 -73.65576154 949.7864476 -75.3984375 951.6796875 C-82.08058702 958.93200293 -88.91279996 966.01552848 -95.875 973 C-96.6597168 973.78930908 -97.44443359 974.57861816 -98.25292969 975.3918457 C-102.38456799 979.51252824 -106.59941782 983.46029353 -111.02148438 987.26660156 C-114.55320157 990.3607763 -117.91711321 993.6329734 -121.3125 996.875 C-126.80921052 1002.0854793 -132.3426248 1007.09228949 -138.2734375 1011.8046875 C-141.52111829 1014.41958235 -144.66278238 1017.14371896 -147.8125 1019.875 C-154.70050248 1025.81639468 -161.79659577 1031.44780591 -169 1037 C-169.65339355 1037.50644043 -170.30678711 1038.01288086 -170.97998047 1038.53466797 C-175.9593108 1042.39296614 -180.96611261 1046.21315419 -186 1050 C-186.97936523 1050.73694092 -186.97936523 1050.73694092 -187.97851562 1051.48876953 C-217.44657705 1073.51577525 -248.81155953 1093.2345672 -281 1111 C-282.00627441 1111.55800293 -283.01254883 1112.11600586 -284.04931641 1112.69091797 C-324.79949517 1135.22276472 -367.13696379 1153.4637191 -411 1169 C-411.7535376 1169.26744019 -412.5070752 1169.53488037 -413.28344727 1169.8104248 C-418.32878361 1171.59941403 -423.3806374 1173.36887807 -428.4375 1175.125 C-429.07464935 1175.3475647 -429.71179871 1175.57012939 -430.36825562 1175.79943848 C-439.49221105 1178.97658997 -448.65474303 1181.58153687 -458 1184 C-459.38067864 1184.38298991 -460.76004045 1184.77083952 -462.13671875 1185.16796875 C-512.69150087 1199.68369827 -564.42968667 1209.04251634 -616.6875 1214.75 C-617.59261322 1214.85114105 -618.49772644 1214.9522821 -619.43026733 1215.05648804 C-650.06370844 1218.44034363 -680.7865999 1219.38727719 -711.58405685 1219.31785583 C-714.11220194 1219.3123926 -716.64033759 1219.31004085 -719.16848755 1219.3079834 C-757.17882114 1219.25990843 -795.0474132 1218.08303922 -832.6953125 1212.47753906 C-839.11361364 1211.55007179 -845.55618633 1210.80953236 -851.99487305 1210.0390625 C-858.69903675 1209.21612013 -865.34463823 1208.14958711 -872 1207 C-873.37925659 1206.76869385 -873.37925659 1206.76869385 -874.78637695 1206.53271484 C-904.80776535 1201.45488977 -934.7797677 1194.55409326 -964 1186 C-965.15459717 1185.66935547 -965.15459717 1185.66935547 -966.33251953 1185.33203125 C-980.54270243 1181.26105358 -994.55590227 1176.58102636 -1008.55380249 1171.840271 C-1012.31076411 1170.56789012 -1016.07297234 1169.31300529 -1019.83984375 1168.0703125 C-1063.41449759 1153.52199435 -1106.40895616 1133.79716913 -1146.43847656 1111.42333984 C-1148.92600044 1110.0411187 -1151.42479285 1108.68247445 -1153.9296875 1107.33203125 C-1163.5233734 1102.14718722 -1172.95403856 1096.72400382 -1182.3125 1091.125 C-1183.36864502 1090.49424561 -1184.42479004 1089.86349121 -1185.51293945 1089.21362305 C-1190.83526114 1086.00602919 -1196.06015279 1082.77630069 -1201 1079 C-1201 1078.67 -1201 1078.34 -1201 1078 C-1193.08163321 1078.38875703 -1185.16859075 1078.79197269 -1177.27026367 1079.48754883 C-1161.05583634 1080.90548552 -1144.95952838 1081.36057617 -1128.6875 1081.3125 C-1127.42851898 1081.31100952 -1126.16953796 1081.30951904 -1124.87240601 1081.3079834 C-1104.45701237 1081.26476973 -1084.27022651 1080.5316613 -1063.98431396 1078.22460938 C-1062.01976851 1078.00223765 -1060.05407031 1077.79012817 -1058.08837891 1077.578125 C-1018.06174862 1073.19220128 -978.32440573 1065.4051326 -940 1053 C-938.85982422 1052.63535645 -937.71964844 1052.27071289 -936.54492188 1051.89501953 C-890.96433991 1037.27196003 -846.90005456 1018.34208628 -805.81347656 993.68457031 C-803.08973059 992.05372623 -800.35546018 990.4422431 -797.6171875 988.8359375 C-787.0989625 982.63982249 -776.94898188 976.0714383 -767 969 C-765.80861104 968.15882968 -764.61720508 967.31768343 -763.42578125 966.4765625 C-760.54744145 964.43758837 -757.68138839 962.38222768 -754.82226562 960.31640625 C-753.5330739 959.38509304 -752.24257968 958.45558158 -750.95117188 957.52734375 C-748.85989401 956.02285498 -746.77313297 954.51230154 -744.6875 953 C-743.70801392 952.29617188 -743.70801392 952.29617188 -742.70874023 951.578125 C-739.34109465 949.25642857 -739.34109465 949.25642857 -737 946 C-737.61593018 946.02094727 -738.23186035 946.04189453 -738.86645508 946.06347656 C-764.72861319 946.81551871 -789.07350841 942.65589906 -814 936 C-814.85577637 935.77618652 -815.71155273 935.55237305 -816.59326172 935.32177734 C-861.87067803 923.31415991 -904.23399484 899.16543284 -939 868 C-939.75821045 867.32638428 -939.75821045 867.32638428 -940.53173828 866.63916016 C-952.59176076 855.90303752 -964.02388195 844.71567378 -974 832 C-974.92843252 830.8702895 -975.85958146 829.74280774 -976.79296875 828.6171875 C-996.69526308 804.47197931 -1012.5906981 776.77074248 -1024.0625 747.6875 C-1024.4325415 746.75147949 -1024.80258301 745.81545898 -1025.18383789 744.85107422 C-1027.31440109 739.28407031 -1028.84919048 733.84945149 -1030 728 C-1028.81148437 728.12117188 -1027.62296875 728.24234375 -1026.3984375 728.3671875 C-1022.8524137 728.7278862 -1019.30536688 729.07658618 -1015.7578125 729.421875 C-1012.2258759 729.7681202 -1008.70247394 730.14926404 -1005.1796875 730.578125 C-992.71110294 732.01207501 -980.28609472 732.21501528 -967.75 732.25 C-966.90731567 732.25517639 -966.06463135 732.26035278 -965.19641113 732.26568604 C-948.25777787 732.3477203 -931.97114765 730.57286402 -915.3125 727.5 C-914.11689453 727.28730469 -912.92128906 727.07460937 -911.68945312 726.85546875 C-904.74291931 725.61144116 -904.74291931 725.61144116 -897.91796875 723.84375 C-895 723 -895 723 -891 723 C-891 722.34 -891 721.68 -891 721 C-891.66 720.93683594 -892.32 720.87367188 -893 720.80859375 C-943.5735057 714.55275646 -996.49912433 684.46262698 -1033.5234375 650.265625 C-1035.57528734 648.38853839 -1037.65660954 646.56625363 -1039.76171875 644.75 C-1050.79574223 635.11646854 -1061.02022068 624.5663462 -1070 613 C-1070.92397097 611.87374152 -1071.85127752 610.75021428 -1072.78125 609.62890625 C-1099.86223018 576.80133412 -1120.85545907 536.3816917 -1131 495 C-1131.15629883 494.37609375 -1131.31259766 493.7521875 -1131.47363281 493.109375 C-1132.53720258 488.84683518 -1133.53700804 484.57297902 -1134.49121094 480.28466797 C-1134.83326099 478.74872535 -1135.18035188 477.21389746 -1135.53222656 475.68017578 C-1140.55973352 453.59473006 -1141.3745173 431.58627422 -1141 409 C-1139.93007812 409.52207031 -1138.86015625 410.04414062 -1137.7578125 410.58203125 C-1094.1092531 431.68394261 -1049.71699668 445.55542648 -1001 447 C-1002.02738281 446.23816406 -1003.05476562 445.47632813 -1004.11328125 444.69140625 C-1015.63147048 436.12248702 -1026.73314958 427.30201895 -1037.25 417.5234375 C-1039.53693664 415.42491326 -1041.85864618 413.41422392 -1044.25 411.4375 C-1045.1575 410.633125 -1046.065 409.82875 -1047 409 C-1047 408.34 -1047 407.68 -1047 407 C-1047.99 406.67 -1048.98 406.34 -1050 406 C-1051.47265625 404.5390625 -1051.47265625 404.5390625 -1053.0625 402.625 C-1055.89874178 399.27036949 -1058.81873985 396.02749714 -1061.8125 392.8125 C-1076.79061744 376.32303638 -1089.14084581 357.39856521 -1100 338 C-1100.37576172 337.33887207 -1100.75152344 336.67774414 -1101.13867188 335.99658203 C-1118.85174242 304.67637368 -1130.06523036 269.39836438 -1135.54589844 233.92529297 C-1135.84060654 232.02680237 -1136.14536062 230.12983382 -1136.46191406 228.23486328 C-1138.68110479 214.83104716 -1139.26701256 201.61981248 -1139.25 188.0625 C-1139.24931519 187.29057312 -1139.24863037 186.51864624 -1139.2479248 185.72332764 C-1139.20339797 170.52145984 -1138.6846496 155.40547976 -1136.25 140.375 C-1136.0737207 139.27091797 -1135.89744141 138.16683594 -1135.71582031 137.02929688 C-1129.61115606 99.80469495 -1118.81386363 58.45103323 -1097 27 C-1096.34 27 -1095.68 27 -1095 27 C-1093.6672812 28.46690559 -1092.41086131 30.00322501 -1091.1875 31.5625 C-1082.67697739 42.19040785 -1073.6630468 52.37112618 -1064.41796875 62.36328125 C-1062.38070528 64.58485288 -1060.39768947 66.83582768 -1058.4375 69.125 C-1054.95907864 73.14562133 -1051.17861355 76.83554397 -1047.3984375 80.5703125 C-1045.3801527 82.61489417 -1043.48500482 84.68836018 -1041.625 86.875 C-1035.02919639 94.56230776 -1027.70271865 101.66781193 -1019.9921875 108.2265625 C-1017.56062019 110.39113418 -1015.28788919 112.68429453 -1013 115 C-1009.4882345 118.54918157 -1005.90991099 121.91968457 -1002.1171875 125.1640625 C-999.59400545 127.3520617 -997.14445481 129.61293113 -994.6875 131.875 C-990.22611655 135.94417391 -985.64055282 139.79977816 -980.94140625 143.58984375 C-978.22339459 145.81695291 -975.55954955 148.09213722 -972.90527344 150.39404297 C-966.43382896 156.00463979 -959.80992399 161.35001778 -952.97021484 166.50683594 C-950.67570617 168.24577213 -948.3944028 170.00135328 -946.11328125 171.7578125 C-901.90404279 205.74481319 -854.42908659 235.0355769 -804.85986328 260.52832031 C-803.03091537 261.4694931 -801.20359985 262.41384921 -799.37841797 263.36230469 C-745.70345583 291.21670897 -686.98261576 313.68779018 -628.07470703 327.50732422 C-624.8313762 328.27751034 -621.60476079 329.11252491 -618.375 329.9375 C-616.34055137 330.44375541 -614.30489743 330.94477752 -612.26855469 331.44335938 C-610.69546801 331.82935137 -609.12325712 332.21892343 -607.55175781 332.61132812 C-554.460971 345.78083096 -500.48070795 352.15871191 -446 356 C-446.13575439 355.39978027 -446.27150879 354.79956055 -446.41137695 354.18115234 C-464.51351269 272.74835383 -450.27711709 187.20268264 -405.95751953 116.39208984 C-395.86475593 100.64086956 -384.54151268 85.86798164 -372 72 C-371.47100098 71.40928711 -370.94200195 70.81857422 -370.39697266 70.20996094 C-365.22229515 64.43850968 -360.05391546 58.75740799 -354.08984375 53.78125 C-351.49318552 51.56802355 -349.04305801 49.21756225 -346.5625 46.875 C-317.1578136 19.63672629 -280.4460085 -0.36881451 -243 -14 C-242.28763184 -14.26006836 -241.57526367 -14.52013672 -240.84130859 -14.78808594 C-224.04874824 -20.83726706 -206.57236007 -24.97588918 -189 -28 C-188.14986328 -28.15243164 -187.29972656 -28.30486328 -186.42382812 -28.46191406 C-124.3567592 -39.14483336 -56.15862358 -28.15315987 0 0 Z " fill="#FEFEFE" transform="translate(1634,606)"/>
</svg>
